# xmcd
#
# Track frame offsets: 
#        200
#        18012
#        34402
#
# Disc length: 587 seconds
#
# Revision: 0
# Processed by: cddbd v1.5.2PL0 Copyright (c) Steve Scherf et al.
# Submitted via: ExactAudioCopyFreeDBPlugin 1.0
#
DISCID=19024903
DTITLE=Larry McCray - Ambition
DYEAR=1990
DGENRE=Blues
TTITLE0=Ambition
TTITLE1=Secret Lover
TTITLE2=The Sun Rises In The East
EXTD=
EXTT0=
EXTT1=
EXTT2=
PLAYORDER=
